<svg width="208" height="553" viewBox="0 0 208 553" fill="none" xmlns="http://www.w3.org/2000/svg">
<path d="M101.081 2.61323L1.28566 349.406C1.10647 350.029 1.24007 350.7 1.64414 351.206L64.3545 429.825C64.637 430.179 64.7909 430.619 64.7909 431.072V506.398C64.7909 506.851 64.9447 507.29 65.2271 507.644L99.4204 550.53C100.6 552.01 102.984 551.176 102.984 549.283V255.719C102.984 253.394 99.6871 252.94 99.0587 255.178L69.4598 360.597C69.0276 362.136 67.0535 362.571 66.0143 361.356L50.0422 342.682C49.6101 342.176 49.4572 341.49 49.6343 340.849L101.064 154.775C101.604 152.821 104.374 152.818 104.918 154.772L156.776 340.985C156.933 341.549 156.835 342.153 156.509 342.639L142.451 363.516C142.156 363.955 142.046 364.493 142.146 365.012L151.73 414.73C152.054 416.409 154.198 416.934 155.261 415.595L206.356 351.211C206.76 350.702 206.891 350.028 206.708 349.404L104.922 2.60306C104.358 0.682094 101.635 0.689316 101.081 2.61323Z" fill="white" stroke="white" stroke-width="2"/>
</svg>
